<svg width="441" height="232" viewBox="0 0 441 232" fill="none" xmlns="http://www.w3.org/2000/svg">
<rect x="33" width="374" height="185" rx="51" fill="#112981"/>
<path d="M168.184 128.608V147H93.248V39.08H166.816V57.472H114.224V83.464H159.672V100.488H114.224V128.608H168.184ZM265.249 57.472H230.745V147H209.921V57.472H175.417V39.08H265.249V57.472ZM353.582 128.608V147H278.646V39.08H352.214V57.472H299.622V83.464H345.07V100.488H299.622V128.608H353.582Z" fill="white"/>
<path d="M110.639 167.317V169H102.36V156.93H110.486V158.613H104.264V162.047H109.653V163.628H104.264V167.317H110.639ZM119.743 159.769C119.63 159.644 119.465 159.514 119.25 159.378C119.035 159.231 118.78 159.095 118.485 158.97C118.19 158.845 117.873 158.743 117.533 158.664C117.193 158.585 116.842 158.545 116.479 158.545C115.686 158.545 115.096 158.692 114.711 158.987C114.326 159.282 114.133 159.69 114.133 160.211C114.133 160.596 114.241 160.902 114.456 161.129C114.671 161.344 115 161.526 115.442 161.673C115.884 161.82 116.439 161.979 117.108 162.149C117.924 162.342 118.632 162.574 119.233 162.846C119.834 163.107 120.293 163.458 120.61 163.9C120.927 164.342 121.086 164.926 121.086 165.651C121.086 166.263 120.973 166.79 120.746 167.232C120.519 167.674 120.202 168.037 119.794 168.32C119.386 168.592 118.916 168.796 118.383 168.932C117.85 169.057 117.278 169.119 116.666 169.119C116.065 169.119 115.465 169.057 114.864 168.932C114.275 168.807 113.708 168.626 113.164 168.388C112.631 168.139 112.138 167.838 111.685 167.487L112.552 165.855C112.699 166.002 112.909 166.167 113.181 166.348C113.464 166.518 113.787 166.682 114.15 166.841C114.524 167 114.926 167.136 115.357 167.249C115.799 167.351 116.247 167.402 116.7 167.402C117.459 167.402 118.037 167.272 118.434 167.011C118.842 166.739 119.046 166.354 119.046 165.855C119.046 165.447 118.916 165.124 118.655 164.886C118.394 164.637 118.015 164.427 117.516 164.257C117.017 164.087 116.422 163.917 115.731 163.747C114.938 163.532 114.275 163.299 113.742 163.05C113.209 162.789 112.807 162.461 112.535 162.064C112.274 161.656 112.144 161.14 112.144 160.517C112.144 159.724 112.337 159.055 112.722 158.511C113.107 157.956 113.629 157.542 114.286 157.27C114.955 156.987 115.703 156.845 116.53 156.845C117.074 156.845 117.59 156.907 118.077 157.032C118.564 157.145 119.018 157.304 119.437 157.508C119.868 157.712 120.259 157.944 120.61 158.205L119.743 159.769ZM122.231 162.88C122.231 162.143 122.361 161.424 122.622 160.721C122.882 160.007 123.262 159.361 123.761 158.783C124.271 158.194 124.888 157.729 125.614 157.389C126.339 157.038 127.161 156.862 128.079 156.862C129.167 156.862 130.107 157.111 130.901 157.61C131.694 158.097 132.283 158.726 132.669 159.497L131.173 160.5C130.946 160.013 130.657 159.627 130.306 159.344C129.966 159.061 129.592 158.862 129.184 158.749C128.787 158.636 128.396 158.579 128.011 158.579C127.376 158.579 126.821 158.709 126.345 158.97C125.869 159.219 125.466 159.554 125.138 159.973C124.82 160.392 124.577 160.863 124.407 161.384C124.248 161.905 124.169 162.427 124.169 162.948C124.169 163.526 124.265 164.087 124.458 164.631C124.65 165.164 124.917 165.64 125.257 166.059C125.608 166.467 126.022 166.79 126.498 167.028C126.974 167.266 127.495 167.385 128.062 167.385C128.447 167.385 128.849 167.317 129.269 167.181C129.688 167.045 130.073 166.835 130.425 166.552C130.787 166.257 131.071 165.872 131.275 165.396L132.856 166.297C132.606 166.898 132.215 167.408 131.683 167.827C131.161 168.246 130.572 168.564 129.915 168.779C129.269 168.994 128.628 169.102 127.994 169.102C127.144 169.102 126.367 168.926 125.665 168.575C124.962 168.212 124.356 167.736 123.846 167.147C123.336 166.546 122.939 165.878 122.656 165.141C122.372 164.393 122.231 163.639 122.231 162.88ZM139.482 169.085C138.61 169.085 137.822 168.915 137.119 168.575C136.417 168.235 135.81 167.776 135.3 167.198C134.79 166.609 134.394 165.951 134.11 165.226C133.838 164.489 133.702 163.736 133.702 162.965C133.702 162.16 133.85 161.395 134.144 160.67C134.439 159.933 134.847 159.282 135.368 158.715C135.89 158.137 136.502 157.684 137.204 157.355C137.918 157.015 138.689 156.845 139.516 156.845C140.378 156.845 141.16 157.021 141.862 157.372C142.576 157.723 143.183 158.194 143.681 158.783C144.191 159.372 144.582 160.03 144.854 160.755C145.138 161.48 145.279 162.223 145.279 162.982C145.279 163.787 145.132 164.557 144.837 165.294C144.554 166.019 144.152 166.671 143.63 167.249C143.109 167.816 142.491 168.263 141.777 168.592C141.075 168.921 140.31 169.085 139.482 169.085ZM135.64 162.965C135.64 163.532 135.731 164.081 135.912 164.614C136.094 165.147 136.349 165.623 136.677 166.042C137.017 166.45 137.425 166.773 137.901 167.011C138.377 167.249 138.91 167.368 139.499 167.368C140.111 167.368 140.655 167.243 141.131 166.994C141.607 166.745 142.004 166.41 142.321 165.991C142.65 165.56 142.899 165.084 143.069 164.563C143.239 164.03 143.324 163.498 143.324 162.965C143.324 162.398 143.234 161.854 143.052 161.333C142.882 160.8 142.627 160.33 142.287 159.922C141.947 159.503 141.539 159.174 141.063 158.936C140.599 158.698 140.077 158.579 139.499 158.579C138.887 158.579 138.343 158.704 137.867 158.953C137.391 159.202 136.989 159.537 136.66 159.956C136.332 160.375 136.077 160.846 135.895 161.367C135.725 161.888 135.64 162.421 135.64 162.965ZM147.251 169V156.93H149.155V167.317H155.632V169H147.251ZM160.663 156.93H162.465L167.157 169H165.151L163.876 165.719H159.218L157.96 169H155.937L160.663 156.93ZM163.502 164.308L161.564 159.021L159.558 164.308H163.502ZM184.862 158.613H180.85V169H178.929V158.613H174.9V156.93H184.862V158.613ZM194.759 167.317V169H186.48V156.93H194.606V158.613H188.384V162.047H193.773V163.628H188.384V167.317H194.759ZM191.376 155.672L190.152 155.298L191.121 153.428H192.906L191.376 155.672ZM195.742 162.88C195.742 162.143 195.873 161.424 196.133 160.721C196.394 160.007 196.774 159.361 197.272 158.783C197.782 158.194 198.4 157.729 199.125 157.389C199.851 157.038 200.672 156.862 201.59 156.862C202.678 156.862 203.619 157.111 204.412 157.61C205.206 158.097 205.795 158.726 206.18 159.497L204.684 160.5C204.458 160.013 204.169 159.627 203.817 159.344C203.477 159.061 203.103 158.862 202.695 158.749C202.299 158.636 201.908 158.579 201.522 158.579C200.888 158.579 200.332 158.709 199.856 158.97C199.38 159.219 198.978 159.554 198.649 159.973C198.332 160.392 198.088 160.863 197.918 161.384C197.76 161.905 197.68 162.427 197.68 162.948C197.68 163.526 197.777 164.087 197.969 164.631C198.162 165.164 198.428 165.64 198.768 166.059C199.12 166.467 199.533 166.79 200.009 167.028C200.485 167.266 201.007 167.385 201.573 167.385C201.959 167.385 202.361 167.317 202.78 167.181C203.2 167.045 203.585 166.835 203.936 166.552C204.299 166.257 204.582 165.872 204.786 165.396L206.367 166.297C206.118 166.898 205.727 167.408 205.194 167.827C204.673 168.246 204.084 168.564 203.426 168.779C202.78 168.994 202.14 169.102 201.505 169.102C200.655 169.102 199.879 168.926 199.176 168.575C198.474 168.212 197.867 167.736 197.357 167.147C196.847 166.546 196.451 165.878 196.167 165.141C195.884 164.393 195.742 163.639 195.742 162.88ZM210.033 160.466V169H208.129V156.93H209.693L216.527 165.651V156.947H218.448V169H216.782L210.033 160.466ZM221.161 169V156.93H223.065V169H221.161ZM225.028 162.88C225.028 162.143 225.158 161.424 225.419 160.721C225.679 160.007 226.059 159.361 226.558 158.783C227.068 158.194 227.685 157.729 228.411 157.389C229.136 157.038 229.958 156.862 230.876 156.862C231.964 156.862 232.904 157.111 233.698 157.61C234.491 158.097 235.08 158.726 235.466 159.497L233.97 160.5C233.743 160.013 233.454 159.627 233.103 159.344C232.763 159.061 232.389 158.862 231.981 158.749C231.584 158.636 231.193 158.579 230.808 158.579C230.173 158.579 229.618 158.709 229.142 158.97C228.666 159.219 228.263 159.554 227.935 159.973C227.617 160.392 227.374 160.863 227.204 161.384C227.045 161.905 226.966 162.427 226.966 162.948C226.966 163.526 227.062 164.087 227.255 164.631C227.447 165.164 227.714 165.64 228.054 166.059C228.405 166.467 228.819 166.79 229.295 167.028C229.771 167.266 230.292 167.385 230.859 167.385C231.244 167.385 231.646 167.317 232.066 167.181C232.485 167.045 232.87 166.835 233.222 166.552C233.584 166.257 233.868 165.872 234.072 165.396L235.653 166.297C235.403 166.898 235.012 167.408 234.48 167.827C233.958 168.246 233.369 168.564 232.712 168.779C232.066 168.994 231.425 169.102 230.791 169.102C229.941 169.102 229.164 168.926 228.462 168.575C227.759 168.212 227.153 167.736 226.643 167.147C226.133 166.546 225.736 165.878 225.453 165.141C225.169 164.393 225.028 163.639 225.028 162.88ZM240.733 156.93H242.535L247.227 169H245.221L243.946 165.719H239.288L238.03 169H236.007L240.733 156.93ZM243.572 164.308L241.634 159.021L239.628 164.308H243.572ZM260.667 167.317V169H252.388V156.93H260.514V158.613H254.292V162.047H259.681V163.628H254.292V167.317H260.667ZM269.771 159.769C269.658 159.644 269.494 159.514 269.278 159.378C269.063 159.231 268.808 159.095 268.513 158.97C268.219 158.845 267.901 158.743 267.561 158.664C267.221 158.585 266.87 158.545 266.507 158.545C265.714 158.545 265.125 158.692 264.739 158.987C264.354 159.282 264.161 159.69 264.161 160.211C264.161 160.596 264.269 160.902 264.484 161.129C264.7 161.344 265.028 161.526 265.47 161.673C265.912 161.82 266.468 161.979 267.136 162.149C267.952 162.342 268.661 162.574 269.261 162.846C269.862 163.107 270.321 163.458 270.638 163.9C270.956 164.342 271.114 164.926 271.114 165.651C271.114 166.263 271.001 166.79 270.774 167.232C270.548 167.674 270.23 168.037 269.822 168.32C269.414 168.592 268.944 168.796 268.411 168.932C267.879 169.057 267.306 169.119 266.694 169.119C266.094 169.119 265.493 169.057 264.892 168.932C264.303 168.807 263.736 168.626 263.192 168.388C262.66 168.139 262.167 167.838 261.713 167.487L262.58 165.855C262.728 166.002 262.937 166.167 263.209 166.348C263.493 166.518 263.816 166.682 264.178 166.841C264.552 167 264.955 167.136 265.385 167.249C265.827 167.351 266.275 167.402 266.728 167.402C267.488 167.402 268.066 167.272 268.462 167.011C268.87 166.739 269.074 166.354 269.074 165.855C269.074 165.447 268.944 165.124 268.683 164.886C268.423 164.637 268.043 164.427 267.544 164.257C267.046 164.087 266.451 163.917 265.759 163.747C264.966 163.532 264.303 163.299 263.77 163.05C263.238 162.789 262.835 162.461 262.563 162.064C262.303 161.656 262.172 161.14 262.172 160.517C262.172 159.724 262.365 159.055 262.75 158.511C263.136 157.956 263.657 157.542 264.314 157.27C264.983 156.987 265.731 156.845 266.558 156.845C267.102 156.845 267.618 156.907 268.105 157.032C268.593 157.145 269.046 157.304 269.465 157.508C269.896 157.712 270.287 157.944 270.638 158.205L269.771 159.769ZM281.881 158.613H277.869V169H275.948V158.613H271.919V156.93H281.881V158.613ZM285.856 156.93H287.658L292.35 169H290.344L289.069 165.719H284.411L283.153 169H281.13L285.856 156.93ZM288.695 164.308L286.757 159.021L284.751 164.308H288.695ZM293.842 169V156.93H298.126C299.43 156.93 300.518 157.202 301.39 157.746C302.263 158.279 302.915 159.004 303.345 159.922C303.787 160.829 304.008 161.837 304.008 162.948C304.008 164.172 303.765 165.237 303.277 166.144C302.801 167.051 302.121 167.753 301.237 168.252C300.353 168.751 299.316 169 298.126 169H293.842ZM302.07 162.948C302.07 162.098 301.912 161.35 301.594 160.704C301.288 160.047 300.841 159.537 300.251 159.174C299.673 158.8 298.965 158.613 298.126 158.613H295.746V167.317H298.126C298.976 167.317 299.69 167.124 300.268 166.739C300.858 166.354 301.305 165.832 301.611 165.175C301.917 164.518 302.07 163.775 302.07 162.948ZM311.043 169.085C310.08 169.085 309.264 168.921 308.595 168.592C307.938 168.263 307.405 167.816 306.997 167.249C306.601 166.682 306.306 166.036 306.113 165.311C305.932 164.586 305.841 163.832 305.841 163.05V156.93H307.745V163.05C307.745 163.605 307.802 164.144 307.915 164.665C308.029 165.175 308.21 165.634 308.459 166.042C308.709 166.45 309.043 166.773 309.462 167.011C309.893 167.249 310.42 167.368 311.043 167.368C311.678 167.368 312.205 167.249 312.624 167.011C313.055 166.762 313.389 166.433 313.627 166.025C313.877 165.606 314.058 165.141 314.171 164.631C314.285 164.121 314.341 163.594 314.341 163.05V156.93H316.262V163.05C316.262 163.877 316.16 164.659 315.956 165.396C315.764 166.121 315.458 166.762 315.038 167.317C314.63 167.861 314.098 168.292 313.44 168.609C312.783 168.926 311.984 169.085 311.043 169.085ZM321.782 156.93H323.584L328.276 169H326.27L324.995 165.719H320.337L319.079 169H317.056L321.782 156.93ZM324.621 164.308L322.683 159.021L320.677 164.308H324.621ZM329.768 169V156.93H331.672V167.317H338.149V169H329.768Z" fill="white"/>
<rect x="9" y="180" width="422" height="52" rx="21" fill="white"/>
<rect x="9" y="180" width="422" height="52" rx="21" stroke="white"/>
<path d="M99.38 214.1C98.4467 214.1 97.5667 213.927 96.74 213.58C95.9133 213.22 95.1867 212.72 94.56 212.08C93.9333 211.427 93.44 210.66 93.08 209.78C92.7333 208.887 92.56 207.893 92.56 206.8C92.56 205.813 92.74 204.893 93.1 204.04C93.46 203.187 93.96 202.433 94.6 201.78C95.24 201.127 95.9867 200.62 96.84 200.26C97.7067 199.887 98.64 199.7 99.64 199.7C100.947 199.7 102.1 199.98 103.1 200.54C104.1 201.1 104.84 201.853 105.32 202.8L102.88 204.64C102.56 204.013 102.093 203.52 101.48 203.16C100.88 202.8 100.227 202.62 99.52 202.62C98.9867 202.62 98.4933 202.733 98.04 202.96C97.6 203.173 97.2133 203.48 96.88 203.88C96.56 204.267 96.3133 204.72 96.14 205.24C95.9667 205.76 95.88 206.32 95.88 206.92C95.88 207.533 95.9733 208.1 96.16 208.62C96.3467 209.14 96.6067 209.593 96.94 209.98C97.2733 210.353 97.6667 210.647 98.12 210.86C98.5867 211.073 99.1 211.18 99.66 211.18C100.34 211.18 100.987 211.013 101.6 210.68C102.227 210.333 102.8 209.827 103.32 209.16V212.4C102.187 213.533 100.873 214.1 99.38 214.1ZM103.12 208.96H100.36V206.58H105.84V214H103.12V208.96ZM108.008 214V199.8H111.288V214H108.008ZM117.285 205.88V214H114.005V199.8H116.605L123.185 208.16V199.8H126.465V214H123.785L117.285 205.88ZM132.76 199.8H136.3L141.18 214H137.82L136.72 210.82H132.3L131.22 214H127.86L132.76 199.8ZM136.18 208.56L134.52 203.1L132.82 208.56H136.18ZM135.56 198.86L133.52 198.3L134.56 195.7H137.46L135.56 198.86ZM150.923 203.96C150.883 203.893 150.743 203.793 150.503 203.66C150.263 203.513 149.963 203.36 149.603 203.2C149.243 203.04 148.85 202.9 148.423 202.78C147.996 202.66 147.57 202.6 147.143 202.6C146.583 202.6 146.15 202.7 145.843 202.9C145.536 203.087 145.383 203.38 145.383 203.78C145.383 204.1 145.496 204.353 145.723 204.54C145.963 204.727 146.303 204.893 146.743 205.04C147.183 205.173 147.723 205.333 148.363 205.52C149.27 205.76 150.056 206.053 150.723 206.4C151.39 206.733 151.896 207.167 152.243 207.7C152.603 208.233 152.783 208.94 152.783 209.82C152.783 210.62 152.636 211.3 152.343 211.86C152.05 212.407 151.65 212.853 151.143 213.2C150.65 213.533 150.083 213.78 149.443 213.94C148.803 214.087 148.143 214.16 147.463 214.16C146.77 214.16 146.056 214.093 145.323 213.96C144.603 213.813 143.91 213.613 143.243 213.36C142.576 213.093 141.963 212.773 141.403 212.4L142.843 209.54C142.896 209.607 143.07 209.733 143.363 209.92C143.656 210.093 144.016 210.28 144.443 210.48C144.883 210.667 145.37 210.833 145.903 210.98C146.436 211.127 146.976 211.2 147.523 211.2C148.11 211.2 148.543 211.107 148.823 210.92C149.116 210.733 149.263 210.473 149.263 210.14C149.263 209.78 149.11 209.5 148.803 209.3C148.51 209.1 148.103 208.92 147.583 208.76C147.076 208.6 146.49 208.42 145.823 208.22C144.956 207.953 144.236 207.653 143.663 207.32C143.103 206.987 142.683 206.58 142.403 206.1C142.136 205.62 142.003 205.02 142.003 204.3C142.003 203.3 142.236 202.46 142.703 201.78C143.183 201.087 143.823 200.567 144.623 200.22C145.423 199.86 146.296 199.68 147.243 199.68C147.91 199.68 148.55 199.76 149.163 199.92C149.79 200.08 150.37 200.28 150.903 200.52C151.45 200.76 151.936 201 152.363 201.24L150.923 203.96ZM154.708 214V199.8H157.988V214H154.708ZM166.924 214.12C165.857 214.12 164.89 213.92 164.024 213.52C163.17 213.107 162.43 212.56 161.804 211.88C161.19 211.187 160.717 210.413 160.384 209.56C160.05 208.693 159.884 207.8 159.884 206.88C159.884 205.933 160.057 205.033 160.404 204.18C160.764 203.327 161.257 202.567 161.884 201.9C162.524 201.22 163.277 200.687 164.144 200.3C165.01 199.913 165.957 199.72 166.984 199.72C168.037 199.72 168.99 199.927 169.844 200.34C170.71 200.74 171.45 201.287 172.064 201.98C172.69 202.673 173.17 203.453 173.504 204.32C173.837 205.173 174.004 206.047 174.004 206.94C174.004 207.887 173.83 208.787 173.484 209.64C173.137 210.493 172.644 211.26 172.004 211.94C171.364 212.607 170.61 213.14 169.744 213.54C168.89 213.927 167.95 214.12 166.924 214.12ZM163.224 206.92C163.224 207.467 163.304 208 163.464 208.52C163.624 209.027 163.857 209.48 164.164 209.88C164.484 210.28 164.877 210.6 165.344 210.84C165.81 211.08 166.344 211.2 166.944 211.2C167.57 211.2 168.117 211.08 168.584 210.84C169.05 210.587 169.437 210.253 169.744 209.84C170.05 209.427 170.277 208.967 170.424 208.46C170.584 207.94 170.664 207.413 170.664 206.88C170.664 206.333 170.584 205.807 170.424 205.3C170.264 204.793 170.024 204.34 169.704 203.94C169.384 203.527 168.99 203.207 168.524 202.98C168.057 202.753 167.53 202.64 166.944 202.64C166.317 202.64 165.77 202.76 165.304 203C164.85 203.24 164.464 203.567 164.144 203.98C163.837 204.38 163.604 204.84 163.444 205.36C163.297 205.867 163.224 206.387 163.224 206.92ZM180.567 214V199.8H186.627C187.307 199.8 187.927 199.94 188.487 200.22C189.06 200.487 189.554 200.853 189.967 201.32C190.38 201.773 190.7 202.287 190.927 202.86C191.154 203.433 191.267 204.02 191.267 204.62C191.267 205.433 191.074 206.207 190.687 206.94C190.314 207.673 189.787 208.273 189.107 208.74C188.44 209.193 187.647 209.42 186.727 209.42H183.847V214H180.567ZM183.847 206.56H186.527C186.78 206.56 187.014 206.487 187.227 206.34C187.44 206.193 187.614 205.973 187.747 205.68C187.88 205.387 187.947 205.027 187.947 204.6C187.947 204.16 187.867 203.8 187.707 203.52C187.56 203.227 187.367 203.013 187.127 202.88C186.9 202.747 186.66 202.68 186.407 202.68H183.847V206.56ZM203.008 211.12V214H193.028V199.8H202.828V202.68H196.308V205.44H201.908V208.1H196.308V211.12H203.008ZM205.001 214V199.8H211.401C212.067 199.8 212.681 199.94 213.241 200.22C213.814 200.487 214.307 200.853 214.721 201.32C215.134 201.773 215.454 202.287 215.681 202.86C215.921 203.433 216.041 204.013 216.041 204.6C216.041 205.187 215.947 205.747 215.761 206.28C215.574 206.8 215.307 207.273 214.961 207.7C214.614 208.113 214.201 208.453 213.721 208.72L216.841 214H213.221L210.501 209.42H208.281V214H205.001ZM208.281 206.56H211.281C211.547 206.56 211.781 206.48 211.981 206.32C212.194 206.147 212.367 205.913 212.501 205.62C212.634 205.327 212.701 204.987 212.701 204.6C212.701 204.213 212.621 203.88 212.461 203.6C212.314 203.307 212.127 203.08 211.901 202.92C211.674 202.76 211.434 202.68 211.181 202.68H208.281V206.56ZM221.679 205.88V214H218.399V199.8H220.999L227.579 208.16V199.8H230.859V214H228.179L221.679 205.88ZM237.155 199.8H240.695L245.575 214H242.215L241.115 210.82H236.695L235.615 214H232.255L237.155 199.8ZM240.575 208.56L238.915 203.1L237.215 208.56H240.575ZM258.173 214V205.54L255.113 211.7H253.313L250.253 205.54V214H246.973V199.8H250.533L254.213 207.22L257.913 199.8H261.453V214H258.173ZM275.92 210.36C275.92 211.173 275.7 211.853 275.26 212.4C274.834 212.933 274.254 213.333 273.52 213.6C272.787 213.867 271.98 214 271.1 214H264.18V199.8H272.08C272.747 199.8 273.32 199.98 273.8 200.34C274.294 200.687 274.667 201.14 274.92 201.7C275.187 202.26 275.32 202.84 275.32 203.44C275.32 204.107 275.147 204.747 274.8 205.36C274.454 205.96 273.947 206.413 273.28 206.72C274.094 206.96 274.734 207.387 275.2 208C275.68 208.613 275.92 209.4 275.92 210.36ZM272.58 209.7C272.58 209.393 272.52 209.127 272.4 208.9C272.28 208.66 272.12 208.473 271.92 208.34C271.734 208.193 271.507 208.12 271.24 208.12H267.46V211.22H271.1C271.38 211.22 271.627 211.153 271.84 211.02C272.067 210.887 272.247 210.707 272.38 210.48C272.514 210.253 272.58 209.993 272.58 209.7ZM267.46 202.6V205.54H270.68C270.92 205.54 271.14 205.487 271.34 205.38C271.554 205.273 271.727 205.113 271.86 204.9C271.994 204.673 272.06 204.393 272.06 204.06C272.06 203.74 272 203.473 271.88 203.26C271.774 203.047 271.627 202.887 271.44 202.78C271.254 202.66 271.04 202.6 270.8 202.6H267.46ZM283.952 214.12C282.819 214.12 281.852 213.933 281.052 213.56C280.252 213.173 279.599 212.653 279.092 212C278.599 211.333 278.232 210.58 277.992 209.74C277.766 208.887 277.652 207.993 277.652 207.06V199.8H280.932V207.06C280.932 207.593 280.986 208.113 281.092 208.62C281.199 209.113 281.372 209.553 281.612 209.94C281.852 210.327 282.159 210.633 282.532 210.86C282.919 211.087 283.392 211.2 283.952 211.2C284.526 211.2 285.006 211.087 285.392 210.86C285.779 210.62 286.086 210.307 286.312 209.92C286.539 209.52 286.706 209.073 286.812 208.58C286.919 208.087 286.972 207.58 286.972 207.06V199.8H290.252V207.06C290.252 208.047 290.126 208.967 289.872 209.82C289.632 210.673 289.259 211.427 288.752 212.08C288.246 212.72 287.592 213.22 286.792 213.58C286.006 213.94 285.059 214.12 283.952 214.12ZM291.974 206.78C291.974 205.913 292.134 205.067 292.454 204.24C292.774 203.4 293.24 202.64 293.854 201.96C294.467 201.28 295.214 200.74 296.094 200.34C296.974 199.927 297.974 199.72 299.094 199.72C300.427 199.72 301.58 200.007 302.554 200.58C303.54 201.153 304.274 201.9 304.754 202.82L302.234 204.58C302.02 204.073 301.734 203.68 301.374 203.4C301.027 203.12 300.64 202.927 300.214 202.82C299.8 202.7 299.4 202.64 299.014 202.64C298.387 202.64 297.84 202.767 297.374 203.02C296.907 203.26 296.52 203.587 296.214 204C295.907 204.413 295.68 204.873 295.534 205.38C295.387 205.887 295.314 206.393 295.314 206.9C295.314 207.46 295.4 208 295.574 208.52C295.747 209.04 295.994 209.5 296.314 209.9C296.647 210.3 297.047 210.62 297.514 210.86C297.98 211.087 298.494 211.2 299.054 211.2C299.454 211.2 299.86 211.133 300.274 211C300.687 210.867 301.067 210.66 301.414 210.38C301.774 210.087 302.047 209.707 302.234 209.24L304.914 210.82C304.634 211.513 304.174 212.107 303.534 212.6C302.894 213.093 302.167 213.473 301.354 213.74C300.554 213.993 299.76 214.12 298.974 214.12C297.947 214.12 297 213.913 296.134 213.5C295.28 213.073 294.54 212.513 293.914 211.82C293.3 211.113 292.82 210.327 292.474 209.46C292.14 208.58 291.974 207.687 291.974 206.78ZM309.928 199.8H313.468L318.348 214H314.988L313.888 210.82H309.468L308.388 214H305.028L309.928 199.8ZM313.348 208.56L311.688 203.1L309.988 208.56H313.348ZM323.027 205.88V214H319.747V199.8H322.347L328.927 208.16V199.8H332.207V214H329.527L323.027 205.88ZM341.143 214.12C340.076 214.12 339.109 213.92 338.243 213.52C337.389 213.107 336.649 212.56 336.023 211.88C335.409 211.187 334.936 210.413 334.603 209.56C334.269 208.693 334.103 207.8 334.103 206.88C334.103 205.933 334.276 205.033 334.623 204.18C334.983 203.327 335.476 202.567 336.103 201.9C336.743 201.22 337.496 200.687 338.363 200.3C339.229 199.913 340.176 199.72 341.203 199.72C342.256 199.72 343.209 199.927 344.063 200.34C344.929 200.74 345.669 201.287 346.283 201.98C346.909 202.673 347.389 203.453 347.723 204.32C348.056 205.173 348.223 206.047 348.223 206.94C348.223 207.887 348.049 208.787 347.703 209.64C347.356 210.493 346.863 211.26 346.223 211.94C345.583 212.607 344.829 213.14 343.963 213.54C343.109 213.927 342.169 214.12 341.143 214.12ZM337.443 206.92C337.443 207.467 337.523 208 337.683 208.52C337.843 209.027 338.076 209.48 338.383 209.88C338.703 210.28 339.096 210.6 339.563 210.84C340.029 211.08 340.563 211.2 341.163 211.2C341.789 211.2 342.336 211.08 342.803 210.84C343.269 210.587 343.656 210.253 343.963 209.84C344.269 209.427 344.496 208.967 344.643 208.46C344.803 207.94 344.883 207.413 344.883 206.88C344.883 206.333 344.803 205.807 344.643 205.3C344.483 204.793 344.243 204.34 343.923 203.94C343.603 203.527 343.209 203.207 342.743 202.98C342.276 202.753 341.749 202.64 341.163 202.64C340.536 202.64 339.989 202.76 339.523 203C339.069 203.24 338.683 203.567 338.363 203.98C338.056 204.38 337.823 204.84 337.663 205.36C337.516 205.867 337.443 206.387 337.443 206.92Z" fill="#112981"/>
<rect x="387" y="79" width="54" height="27" fill="#069136"/>
<rect x="387" y="40" width="54" height="27" fill="#FEEC02"/>
<rect x="387" y="118" width="54" height="27" fill="#DF000C"/>
<rect y="40" width="54" height="27" fill="#FEEC02"/>
<rect y="118" width="54" height="27" fill="#DF000C"/>
<rect y="79" width="54" height="27" fill="#069136"/>
</svg>
