<svg width="40" height="40" viewBox="0 0 40 40" fill="none" xmlns="http://www.w3.org/2000/svg">
<path d="M31.6663 11.6667H26.6663V9.16667C26.6663 8.0616 26.2274 7.00179 25.446 6.22039C24.6646 5.43899 23.6047 5 22.4997 5H17.4997C16.3946 5 15.3348 5.43899 14.5534 6.22039C13.772 7.00179 13.333 8.0616 13.333 9.16667V11.6667H8.33301C7.00693 11.6667 5.73516 12.1935 4.79747 13.1311C3.85979 14.0688 3.33301 15.3406 3.33301 16.6667V30C3.33301 31.3261 3.85979 32.5979 4.79747 33.5355C5.73516 34.4732 7.00693 35 8.33301 35H31.6663C32.9924 35 34.2642 34.4732 35.2019 33.5355C36.1396 32.5979 36.6663 31.3261 36.6663 30V16.6667C36.6663 15.3406 36.1396 14.0688 35.2019 13.1311C34.2642 12.1935 32.9924 11.6667 31.6663 11.6667ZM16.6663 9.16667C16.6663 8.94565 16.7541 8.73369 16.9104 8.57741C17.0667 8.42113 17.2787 8.33333 17.4997 8.33333H22.4997C22.7207 8.33333 22.9327 8.42113 23.0889 8.57741C23.2452 8.73369 23.333 8.94565 23.333 9.16667V11.6667H16.6663V9.16667ZM33.333 30C33.333 30.442 33.1574 30.866 32.8449 31.1785C32.5323 31.4911 32.1084 31.6667 31.6663 31.6667H8.33301C7.89098 31.6667 7.46706 31.4911 7.1545 31.1785C6.84194 30.866 6.66634 30.442 6.66634 30V16.6667C6.66634 16.2246 6.84194 15.8007 7.1545 15.4882C7.46706 15.1756 7.89098 15 8.33301 15H31.6663C32.1084 15 32.5323 15.1756 32.8449 15.4882C33.1574 15.8007 33.333 16.2246 33.333 16.6667V30Z" fill="white"/>
<path d="M20.0003 17.5C18.8466 17.5 17.7188 17.8421 16.7595 18.4831C15.8002 19.1241 15.0525 20.0351 14.611 21.101C14.1695 22.1669 14.054 23.3398 14.2791 24.4714C14.5042 25.6029 15.0597 26.6423 15.8755 27.4581C16.6913 28.2739 17.7307 28.8295 18.8623 29.0546C19.9939 29.2797 21.1667 29.1641 22.2326 28.7226C23.2986 28.2811 24.2096 27.5334 24.8506 26.5742C25.4915 25.6149 25.8337 24.4871 25.8337 23.3333C25.8337 21.7862 25.2191 20.3025 24.1251 19.2085C23.0312 18.1146 21.5474 17.5 20.0003 17.5V17.5ZM20.0003 25.8333C19.5059 25.8333 19.0225 25.6867 18.6114 25.412C18.2003 25.1373 17.8798 24.7469 17.6906 24.29C17.5014 23.8332 17.4519 23.3306 17.5484 22.8456C17.6448 22.3607 17.8829 21.9152 18.2326 21.5656C18.5822 21.2159 19.0276 20.9778 19.5126 20.8814C19.9976 20.7849 20.5002 20.8344 20.957 21.0236C21.4139 21.2129 21.8043 21.5333 22.079 21.9444C22.3537 22.3555 22.5003 22.8389 22.5003 23.3333C22.5003 23.9964 22.2369 24.6323 21.7681 25.1011C21.2993 25.5699 20.6634 25.8333 20.0003 25.8333V25.8333Z" fill="white"/>
</svg>
