<svg width="62" height="44" viewBox="0 0 62 56" fill="none" xmlns="http://www.w3.org/2000/svg">
<path d="M2 47.632V19.112C2 15.9618 4.55377 13.408 7.704 13.408H9.13C10.9254 13.408 12.616 12.5627 13.6932 11.1264L20.0246 2.68448C20.3478 2.2536 20.855 2 21.3936 2H39.6464C40.1851 2 40.6922 2.2536 41.0154 2.68448L47.3468 11.1264C48.424 12.5627 50.1147 13.408 51.91 13.408H53.336C56.4863 13.408 59.04 15.9618 59.04 19.112V47.632C59.04 50.7823 56.4863 53.336 53.336 53.336H7.704C4.55377 53.336 2 50.7823 2 47.632Z" stroke="black" stroke-width="4" stroke-linecap="round" stroke-linejoin="round"/>
<path d="M30.5201 41.9283C36.8204 41.9283 41.9281 36.8207 41.9281 30.5203C41.9281 24.22 36.8204 19.1123 30.5201 19.1123C24.2196 19.1123 19.1121 24.22 19.1121 30.5203C19.1121 36.8207 24.2196 41.9283 30.5201 41.9283Z" stroke="black" stroke-width="4" stroke-linecap="round" stroke-linejoin="round"/>
</svg>
