<svg width="40" height="40" viewBox="0 0 40 40" fill="none" xmlns="http://www.w3.org/2000/svg">
<path d="M36.0167 31.3753C38.5599 29.1087 39.9999 26.0875 39.9999 22.9522C39.9999 19.6203 38.4401 16.5041 35.6077 14.1773C32.8511 11.9135 29.2023 10.6666 25.333 10.6666C21.4637 10.6666 17.8149 11.9135 15.0587 14.1775C12.2263 16.5041 10.6665 19.6203 10.6665 22.9522C10.6665 26.2842 12.2263 29.4003 15.0587 31.7272C17.8149 33.9911 21.4637 35.238 25.333 35.238C25.8486 35.238 26.3673 35.2152 26.8818 35.17L27.7606 35.9317C30.7882 38.5552 34.66 39.9995 38.6662 39.9997H39.9995V37.1616L39.609 36.7712C38.0686 35.2262 36.8478 33.3926 36.0167 31.3753ZM29.5071 33.9164L27.7437 32.388L27.1557 32.4601C26.5509 32.534 25.9423 32.5711 25.333 32.5711C18.7164 32.5711 13.3331 28.2561 13.3331 22.9522C13.3331 17.6484 18.7164 13.3333 25.333 13.3333C31.9496 13.3333 37.3329 17.6483 37.3329 22.9522C37.3329 25.5947 36.0146 28.0617 33.6208 29.8987L32.8529 30.4879L33.2072 31.4908C33.9333 33.5391 35.0006 35.4498 36.364 37.1422C33.825 36.7184 31.4523 35.6021 29.5071 33.9164Z" fill="white"/>
<path d="M3.68204 25.1227C4.93014 23.5429 5.91008 21.7686 6.58268 19.8709L6.93434 18.873L6.1671 18.2841C3.90979 16.552 2.66664 14.2272 2.66664 11.738C2.66664 6.73601 7.75067 2.66664 13.9999 2.66664C18.5971 2.66664 22.5637 4.86912 24.3395 8.02492C24.6692 8.00892 25.0004 7.99992 25.3331 7.99992C26.0012 7.99992 26.6633 8.03233 27.3192 8.09717C26.633 6.31927 25.4412 4.69628 23.8026 3.35047C21.1724 1.1899 17.6915 0 13.9999 0C10.3082 0 6.82726 1.1899 4.19696 3.35047C1.49048 5.57369 0 8.55241 0 11.738C0 14.7213 1.36265 17.5958 3.77079 19.7581C2.98492 21.6494 1.83661 23.3685 0.390579 24.8188L0 25.2093V27.9997H1.33332C3.79888 27.9994 6.23054 27.4252 8.43583 26.3226C8.19401 25.4061 8.05232 24.466 8.01325 23.5189C6.67474 24.3034 5.20866 24.8463 3.68204 25.1227Z" fill="white"/>
</svg>
