<svg width="59" height="59" viewBox="0 0 59 59" fill="none" xmlns="http://www.w3.org/2000/svg">
<g clip-path="url(#clip0_16_114)">
<path d="M54.0837 17.1592V39.3333C54.0837 42.0375 51.8712 44.25 49.167 44.25H14.7503L4.91699 54.0833V9.83333C4.91699 7.12917 7.12949 4.91667 9.83366 4.91667H34.6628C34.5153 5.70333 34.417 6.53917 34.417 7.375C34.417 14.16 39.9237 19.6667 46.7087 19.6667C49.4866 19.6667 52.0187 18.7079 54.0837 17.1592ZM39.3337 7.375C39.3337 11.4558 42.6278 14.75 46.7087 14.75C50.7895 14.75 54.0837 11.4558 54.0837 7.375C54.0837 3.29417 50.7895 0 46.7087 0C42.6278 0 39.3337 3.29417 39.3337 7.375Z" fill="#0076E2"/>
</g>
<defs>
<clipPath id="clip0_16_114">
<rect width="59" height="59" fill="white"/>
</clipPath>
</defs>
</svg>
