<svg width="41" height="34" viewBox="0 0 41 34" fill="none" xmlns="http://www.w3.org/2000/svg">
<path d="M40.5155 12.6023C40.3282 12.3609 40.0881 12.1657 39.8135 12.0317C39.5389 11.8977 39.2372 11.8285 38.9317 11.8295H33.3892V7.44124C33.3887 6.92823 33.1846 6.43641 32.8218 6.07367C32.4591 5.71093 31.9673 5.5069 31.4542 5.50632H20.0428L18.5549 1.93395C18.4085 1.58098 18.1606 1.27941 17.8427 1.06746C17.5247 0.855519 17.151 0.742737 16.7688 0.743411H2.87706C2.36407 0.744009 1.87226 0.948058 1.50952 1.3108C1.14679 1.67353 0.942737 2.16534 0.942139 2.67833V33.1907H36.1649L40.881 14.3262C40.956 14.03 40.9621 13.7206 40.8987 13.4218C40.8353 13.1229 40.7042 12.8426 40.5155 12.6023V12.6023ZM3.62127 30.5116V3.42254H16.2727L18.2569 8.18545H30.7103V11.8295H11.1217C10.6734 11.8289 10.2379 11.9785 9.8845 12.2543C9.53113 12.5302 9.28033 12.9164 9.17209 13.3515L4.88239 30.5116H3.62127ZM34.0732 30.5116H7.64398L11.6447 14.5086H38.0739L34.0732 30.5116Z" fill="white"/>
</svg>
