<svg width="43" height="40" viewBox="0 0 43 40" fill="none" xmlns="http://www.w3.org/2000/svg">
<path d="M34.2857 10.2857V1.78571C34.2852 1.31228 34.0969 0.858392 33.7621 0.523624C33.4273 0.188855 32.9734 0.000543512 32.5 0H10.3571C9.88371 0.000543512 9.42982 0.188855 9.09505 0.523624C8.76028 0.858392 8.57197 1.31228 8.57143 1.78571V10.2857L0 16.4077V40H42.8571V16.4077L34.2857 10.2857ZM39.0785 17.2203L34.2857 20.3536V13.7964L39.0785 17.2203ZM11.4286 2.85714H31.4286V22.2217L26.3245 25.559L22.1657 23.4026L17.6332 25.5907L11.4286 21.8237V2.85714ZM22.12 26.5973L40 35.8685V37.1429H2.85714V35.8967L22.12 26.5973ZM2.85714 19.9621L14.5664 27.0714L2.85714 32.724V19.9621ZM29.2363 27.0692L40 20.031V32.6501L29.2363 27.0692ZM8.57143 13.7964V20.0893L3.80946 17.1978L8.57143 13.7964Z" fill="white"/>
</svg>
