<svg width="47" height="51" viewBox="0 0 47 51" fill="none" xmlns="http://www.w3.org/2000/svg">
<path d="M15.875 22.9584H10.7917V28.0417H15.875V22.9584ZM26.0417 22.9584H20.9583V28.0417H26.0417V22.9584ZM36.2083 22.9584H31.125V28.0417H36.2083V22.9584ZM41.2917 5.16671H38.75V0.083374H33.6667V5.16671H13.3333V0.083374H8.25V5.16671H5.70833C2.88708 5.16671 0.650417 7.45421 0.650417 10.25L0.625 45.8334C0.625 48.6292 2.88708 50.9167 5.70833 50.9167H41.2917C44.0875 50.9167 46.375 48.6292 46.375 45.8334V10.25C46.375 7.45421 44.0875 5.16671 41.2917 5.16671ZM41.2917 45.8334H5.70833V17.875H41.2917V45.8334Z" fill="#048F36"/>
</svg>
