<svg width="47" height="51" viewBox="0 0 47 51" fill="none" xmlns="http://www.w3.org/2000/svg">
<path d="M42.5625 3.89587L38.75 0.083374L34.9375 3.89587L31.125 0.083374L27.3125 3.89587L23.5 0.083374L19.6875 3.89587L15.875 0.083374L12.0625 3.89587L8.25 0.083374V35.6667H0.625V43.2917C0.625 47.5109 4.03083 50.9167 8.25 50.9167H38.75C42.9692 50.9167 46.375 47.5109 46.375 43.2917V0.083374L42.5625 3.89587ZM41.2917 43.2917C41.2917 44.6896 40.1479 45.8334 38.75 45.8334C37.3521 45.8334 36.2083 44.6896 36.2083 43.2917V35.6667H13.3333V7.70837H41.2917V43.2917Z" fill="#048F36"/>
<path d="M31.125 12.7917H15.875V17.8751H31.125V12.7917Z" fill="#048F36"/>
<path d="M38.7503 12.7917H33.667V17.8751H38.7503V12.7917Z" fill="#048F36"/>
<path d="M31.125 20.4167H15.875V25.5001H31.125V20.4167Z" fill="#048F36"/>
<path d="M38.7503 20.4167H33.667V25.5001H38.7503V20.4167Z" fill="#048F36"/>
</svg>
