<svg width="40" height="40" viewBox="0 0 40 40" fill="none" xmlns="http://www.w3.org/2000/svg">
<path d="M19.9998 26.6668C19.6104 26.6676 19.233 26.5319 18.9331 26.2835L8.93314 17.9501C8.59278 17.6672 8.37874 17.2607 8.33811 16.82C8.29747 16.3793 8.43358 15.9405 8.71648 15.6001C8.99937 15.2598 9.40589 15.0457 9.8466 15.0051C10.2873 14.9645 10.7261 15.1006 11.0665 15.3835L19.9998 22.8501L28.9331 15.6501C29.1036 15.5117 29.2998 15.4083 29.5103 15.3459C29.7209 15.2835 29.9417 15.2634 30.1601 15.2866C30.3785 15.3098 30.5901 15.376 30.7829 15.4813C30.9756 15.5866 31.1456 15.7289 31.2831 15.9001C31.4358 16.0715 31.5514 16.2725 31.6227 16.4907C31.694 16.7088 31.7195 16.9393 31.6976 17.1677C31.6757 17.3962 31.6069 17.6176 31.4954 17.8182C31.3839 18.0188 31.2322 18.1942 31.0498 18.3335L21.0498 26.3835C20.7413 26.5927 20.3716 26.6924 19.9998 26.6668V26.6668Z" fill="#048F36"/>
</svg>
