<svg width="40" height="44" viewBox="0 0 40 44" fill="none" xmlns="http://www.w3.org/2000/svg">
<path d="M35.0787 4.84834H26.0777C25.1733 2.35045 22.8046 0.541626 20.0052 0.541626C17.2058 0.541626 14.8372 2.35045 13.9327 4.84834H4.93171C2.56302 4.84834 0.625 6.78636 0.625 9.15505V39.302C0.625 41.6707 2.56302 43.6088 4.93171 43.6088H35.0787C37.4474 43.6088 39.3854 41.6707 39.3854 39.302V9.15505C39.3854 6.78636 37.4474 4.84834 35.0787 4.84834ZM20.0052 4.84834C21.1896 4.84834 22.1586 5.81735 22.1586 7.0017C22.1586 8.18604 21.1896 9.15505 20.0052 9.15505C18.8209 9.15505 17.8519 8.18604 17.8519 7.0017C17.8519 5.81735 18.8209 4.84834 20.0052 4.84834ZM24.3119 34.9953H9.23843V30.6886H24.3119V34.9953ZM30.772 26.3819H9.23843V22.0752H30.772V26.3819ZM30.772 17.7685H9.23843V13.4618H30.772V17.7685Z" fill="#048F36"/>
</svg>
