<svg width="40" height="40" viewBox="0 0 40 40" fill="none" xmlns="http://www.w3.org/2000/svg">
<path d="M30 5H10C8.67392 5 7.40215 5.52678 6.46447 6.46447C5.52678 7.40215 5 8.67392 5 10V30C5 31.3261 5.52678 32.5979 6.46447 33.5355C7.40215 34.4732 8.67392 35 10 35H30C31.3261 35 32.5979 34.4732 33.5355 33.5355C34.4732 32.5979 35 31.3261 35 30V10C35 8.67392 34.4732 7.40215 33.5355 6.46447C32.5979 5.52678 31.3261 5 30 5ZM20 10C20.3296 10 20.6519 10.0977 20.926 10.2809C21.2 10.464 21.4137 10.7243 21.5398 11.0289C21.6659 11.3334 21.6989 11.6685 21.6346 11.9918C21.5703 12.3151 21.4116 12.6121 21.1785 12.8452C20.9454 13.0783 20.6485 13.237 20.3252 13.3013C20.0018 13.3656 19.6667 13.3326 19.3622 13.2065C19.0576 13.0803 18.7974 12.8667 18.6142 12.5926C18.4311 12.3185 18.3333 11.9963 18.3333 11.6667C18.3333 11.2246 18.5089 10.8007 18.8215 10.4882C19.134 10.1756 19.558 10 20 10ZM13.3333 10C13.663 10 13.9852 10.0977 14.2593 10.2809C14.5334 10.464 14.747 10.7243 14.8731 11.0289C14.9993 11.3334 15.0323 11.6685 14.968 11.9918C14.9037 12.3151 14.7449 12.6121 14.5118 12.8452C14.2788 13.0783 13.9818 13.237 13.6585 13.3013C13.3352 13.3656 13.0001 13.3326 12.6955 13.2065C12.391 13.0803 12.1307 12.8667 11.9476 12.5926C11.7644 12.3185 11.6667 11.9963 11.6667 11.6667C11.6667 11.2246 11.8423 10.8007 12.1548 10.4882C12.4674 10.1756 12.8913 10 13.3333 10ZM31.6667 30C31.6667 30.442 31.4911 30.866 31.1785 31.1785C30.866 31.4911 30.442 31.6667 30 31.6667H10C9.55797 31.6667 9.13405 31.4911 8.82149 31.1785C8.50893 30.866 8.33333 30.442 8.33333 30V18.3333H31.6667V30Z" fill="white"/>
</svg>
