<svg width="42" height="42" viewBox="0 0 42 42" fill="none" xmlns="http://www.w3.org/2000/svg">
<path d="M11.6667 0C5.22433 0 0 5.22433 0 11.6667V30.3333C0 36.7757 5.22433 42 11.6667 42H30.3333C36.7757 42 42 36.7757 42 30.3333V11.6667C42 5.22433 36.7757 0 30.3333 0H11.6667ZM35 4.66667C36.288 4.66667 37.3333 5.712 37.3333 7C37.3333 8.288 36.288 9.33333 35 9.33333C33.712 9.33333 32.6667 8.288 32.6667 7C32.6667 5.712 33.712 4.66667 35 4.66667ZM21 9.33333C27.4423 9.33333 32.6667 14.5577 32.6667 21C32.6667 27.4423 27.4423 32.6667 21 32.6667C14.5577 32.6667 9.33333 27.4423 9.33333 21C9.33333 14.5577 14.5577 9.33333 21 9.33333ZM21 14C19.1435 14 17.363 14.7375 16.0503 16.0503C14.7375 17.363 14 19.1435 14 21C14 22.8565 14.7375 24.637 16.0503 25.9497C17.363 27.2625 19.1435 28 21 28C22.8565 28 24.637 27.2625 25.9497 25.9497C27.2625 24.637 28 22.8565 28 21C28 19.1435 27.2625 17.363 25.9497 16.0503C24.637 14.7375 22.8565 14 21 14Z" fill="#0076E2"/>
</svg>
