<svg width="40" height="40" viewBox="0 0 40 40" fill="none" xmlns="http://www.w3.org/2000/svg">
<path d="M20 0C14.5631 0 13.8855 0.0262533 11.7577 0.116265C9.6212 0.221278 8.17602 0.552569 6.90086 1.04763C5.5857 1.5627 4.46556 2.24653 3.35917 3.35917C2.24528 4.46556 1.55519 5.5857 1.04763 6.90086C0.552569 8.17602 0.221278 9.6212 0.116265 11.7577C0.0200025 13.8867 0 14.5631 0 20C0 25.4369 0.0262533 26.1145 0.116265 28.2423C0.221278 30.3725 0.552569 31.824 1.04763 33.0991C1.5627 34.4143 2.24653 35.5344 3.35917 36.6408C4.46556 37.7547 5.5857 38.4448 6.90086 38.9524C8.17602 39.4412 9.62745 39.7787 11.7577 39.8837C13.8867 39.98 14.5631 40 20 40C25.4369 40 26.1145 39.9737 28.2423 39.8837C30.3725 39.7787 31.824 39.4399 33.0991 38.9524C34.4143 38.4373 35.5344 37.7535 36.6408 36.6408C37.7547 35.5344 38.4448 34.4206 38.9524 33.0991C39.4412 31.824 39.7787 30.3725 39.8837 28.2423C39.98 26.1133 40 25.4369 40 20C40 14.5631 39.9737 13.8855 39.8837 11.7577C39.7787 9.62745 39.4399 8.16852 38.9524 6.90086C38.4373 5.5857 37.7535 4.46556 36.6408 3.35917C35.5344 2.24528 34.4206 1.55519 33.0991 1.04763C31.824 0.552569 30.3725 0.221278 28.2423 0.116265C26.1133 0.0200025 25.4369 0 20 0V0ZM20 3.60045C25.3394 3.60045 25.977 3.6267 28.0873 3.71671C30.0338 3.80798 31.0939 4.13302 31.7977 4.40805C32.7366 4.77185 33.3929 5.2019 34.103 5.90449C34.7994 6.60083 35.2294 7.26466 35.5932 8.20353C35.8682 8.90736 36.1933 9.9675 36.2845 11.914C36.3745 14.0243 36.4008 14.6631 36.4008 20.0012C36.4008 25.3394 36.3745 25.9782 36.277 28.0885C36.172 30.035 35.847 31.0951 35.5732 31.799C35.1944 32.7378 34.7718 33.3942 34.0743 34.1043C33.3704 34.8006 32.7003 35.2307 31.769 35.5944C31.0739 35.8695 29.9987 36.1945 28.0448 36.2858C25.9232 36.3758 25.2982 36.4021 19.945 36.4021C14.5918 36.4021 13.968 36.3758 11.844 36.2783C9.89749 36.1733 8.8236 35.8482 8.11977 35.5744C7.16965 35.1956 6.51831 34.7731 5.82073 34.0755C5.11689 33.3717 4.66933 32.7016 4.32429 31.7702C4.04426 31.0751 3.72422 30 3.62045 28.046C3.54919 25.9495 3.51544 25.2994 3.51544 19.9712C3.51544 14.6456 3.54919 13.9942 3.62045 11.8715C3.72422 9.91749 4.04426 8.84486 4.32429 8.14727C4.66933 7.1959 5.11814 6.54582 5.82073 5.84198C6.51707 5.14564 7.16965 4.69559 8.11977 4.34304C8.8236 4.06926 9.87123 3.74422 11.8252 3.64671C13.9467 3.57045 14.5718 3.54294 19.9175 3.54294L20 3.60045ZM20 9.73497C14.323 9.73497 9.73247 14.3318 9.73247 20.0025C9.73247 25.6795 14.3293 30.27 20 30.27C25.677 30.27 30.2675 25.6732 30.2675 20.0025C30.2675 14.3255 25.6707 9.73497 20 9.73497ZM20 26.6696C16.3145 26.6696 13.3329 23.688 13.3329 20.0025C13.3329 16.317 16.3145 13.3354 20 13.3354C23.6855 13.3354 26.6671 16.317 26.6671 20.0025C26.6671 23.688 23.6855 26.6696 20 26.6696ZM33.0816 9.32492C33.0816 10.6538 32.0002 11.7265 30.6776 11.7265C29.3487 11.7265 28.276 10.6526 28.276 9.32492C28.276 8.0035 29.3562 6.92837 30.6776 6.92837C31.999 6.92837 33.0816 8.0035 33.0816 9.32492Z" fill="white"/>
</svg>
