<svg width="40" height="40" viewBox="0 0 40 40" fill="none" xmlns="http://www.w3.org/2000/svg">
<path d="M36.6667 3L33.3333 0L30 3L26.6667 0L23.3333 3L20 0L16.6667 3L13.3333 0L10 3L6.66667 0V28H0V34C0 37.32 2.97778 40 6.66667 40H33.3333C37.0222 40 40 37.32 40 34V0L36.6667 3ZM35.5556 34C35.5556 35.1 34.5556 36 33.3333 36C32.1111 36 31.1111 35.1 31.1111 34V28H11.1111V6H35.5556V34Z" fill="white"/>
<path d="M26.6666 10H13.3333V14H26.6666V10Z" fill="white"/>
<path d="M33.3336 10H28.8892V14H33.3336V10Z" fill="white"/>
<path d="M26.6666 16H13.3333V20H26.6666V16Z" fill="white"/>
<path d="M33.3336 16H28.8892V20H33.3336V16Z" fill="white"/>
</svg>
