<svg width="46" height="31" viewBox="0 0 46 31" fill="none" xmlns="http://www.w3.org/2000/svg">
<path d="M0 28.2083C0 29.6121 1.13794 30.75 2.54167 30.75H43.2083C44.6121 30.75 45.75 29.6121 45.75 28.2083V28.2083C45.75 26.8046 44.6121 25.6667 43.2083 25.6667H2.54167C1.13794 25.6667 0 26.8046 0 28.2083V28.2083ZM0 15.5C0 16.9037 1.13794 18.0417 2.54167 18.0417H43.2083C44.6121 18.0417 45.75 16.9037 45.75 15.5V15.5C45.75 14.0963 44.6121 12.9583 43.2083 12.9583H2.54167C1.13794 12.9583 0 14.0963 0 15.5V15.5ZM2.54167 0.25C1.13794 0.25 0 1.38794 0 2.79167V2.79167C0 4.19539 1.13794 5.33333 2.54167 5.33333H43.2083C44.6121 5.33333 45.75 4.19539 45.75 2.79167V2.79167C45.75 1.38794 44.6121 0.25 43.2083 0.25H2.54167Z" fill="white"/>
</svg>
