<svg width="40" height="40" viewBox="0 0 40 40" fill="none" xmlns="http://www.w3.org/2000/svg">
<g clip-path="url(#clip0_39_228)">
<path d="M18.3333 6.66675H6.66659C5.78253 6.66675 4.93468 7.01794 4.30956 7.64306C3.68444 8.26818 3.33325 9.11603 3.33325 10.0001V33.3334C3.33325 34.2175 3.68444 35.0653 4.30956 35.6904C4.93468 36.3156 5.78253 36.6667 6.66659 36.6667H29.9999C30.884 36.6667 31.7318 36.3156 32.3569 35.6904C32.9821 35.0653 33.3333 34.2175 33.3333 33.3334V21.6667" stroke="white" stroke-width="5" stroke-linecap="round" stroke-linejoin="round"/>
<path d="M30.8333 4.16664C31.4963 3.5036 32.3956 3.1311 33.3333 3.1311C34.2709 3.1311 35.1702 3.5036 35.8333 4.16664C36.4963 4.82968 36.8688 5.72896 36.8688 6.66664C36.8688 7.60432 36.4963 8.5036 35.8333 9.16664L19.9999 25L13.3333 26.6666L14.9999 20L30.8333 4.16664Z" stroke="white" stroke-width="5" stroke-linecap="round" stroke-linejoin="round"/>
</g>
<defs>
<clipPath id="clip0_39_228">
<rect width="40" height="40" fill="white"/>
</clipPath>
</defs>
</svg>
