<svg width="44" height="40" viewBox="0 0 44 40" fill="none" xmlns="http://www.w3.org/2000/svg">
<path d="M41.4545 5.09091H33.4545V0H30.5455V5.09091H13.0909V0H10.1818V5.09091H2.18182C1.60337 5.09158 1.04881 5.32167 0.639784 5.73069C0.23076 6.13972 0.000673677 6.69428 0 7.27273V37.8182C0.000673677 38.3966 0.23076 38.9512 0.639784 39.3602C1.04881 39.7692 1.60337 39.9993 2.18182 40H41.4545C42.033 39.9993 42.5876 39.7692 42.9966 39.3602C43.4056 38.9512 43.6357 38.3966 43.6364 37.8182V7.27273C43.6357 6.69428 43.4056 6.13972 42.9966 5.73069C42.5876 5.32167 42.033 5.09158 41.4545 5.09091ZM40.7273 37.0909H2.90909V8H10.1818V11.6364H13.0909V8H30.5455V11.6364H33.4545V8H40.7273V37.0909Z" fill="white"/>
<path d="M11.6364 16.7273H8.72729V19.6364H11.6364V16.7273Z" fill="white"/>
<path d="M19.6364 16.7273H16.7273V19.6364H19.6364V16.7273Z" fill="white"/>
<path d="M26.9091 16.7273H24V19.6364H26.9091V16.7273Z" fill="white"/>
<path d="M34.9091 16.7273H32V19.6364H34.9091V16.7273Z" fill="white"/>
<path d="M11.6364 23.2727H8.72729V26.1818H11.6364V23.2727Z" fill="white"/>
<path d="M19.6364 23.2727H16.7273V26.1818H19.6364V23.2727Z" fill="white"/>
<path d="M26.9091 23.2727H24V26.1818H26.9091V23.2727Z" fill="white"/>
<path d="M34.9091 23.2727H32V26.1818H34.9091V23.2727Z" fill="white"/>
<path d="M11.6364 29.8181H8.72729V32.7272H11.6364V29.8181Z" fill="white"/>
<path d="M19.6364 29.8181H16.7273V32.7272H19.6364V29.8181Z" fill="white"/>
<path d="M26.9091 29.8181H24V32.7272H26.9091V29.8181Z" fill="white"/>
<path d="M34.9091 29.8181H32V32.7272H34.9091V29.8181Z" fill="white"/>
</svg>
