<svg width="40" height="40" viewBox="0 0 40 40" fill="none" xmlns="http://www.w3.org/2000/svg">
<path d="M34.9997 10H26.6663V7.21669C26.6272 6.14972 26.1667 5.14178 25.3856 4.41384C24.6046 3.6859 23.5668 3.29734 22.4997 3.33335H17.4997C16.4326 3.29734 15.3948 3.6859 14.6137 4.41384C13.8327 5.14178 13.3721 6.14972 13.333 7.21669V10H4.99967C4.55765 10 4.13372 10.1756 3.82116 10.4882C3.5086 10.8007 3.33301 11.2247 3.33301 11.6667C3.33301 12.1087 3.5086 12.5326 3.82116 12.8452C4.13372 13.1578 4.55765 13.3334 4.99967 13.3334H6.66634V31.6667C6.66634 32.9928 7.19313 34.2645 8.13081 35.2022C9.06849 36.1399 10.3403 36.6667 11.6663 36.6667H28.333C29.6591 36.6667 30.9309 36.1399 31.8685 35.2022C32.8062 34.2645 33.333 32.9928 33.333 31.6667V13.3334H34.9997C35.4417 13.3334 35.8656 13.1578 36.1782 12.8452C36.4907 12.5326 36.6663 12.1087 36.6663 11.6667C36.6663 11.2247 36.4907 10.8007 36.1782 10.4882C35.8656 10.1756 35.4417 10 34.9997 10ZM16.6663 7.21669C16.6663 6.95002 17.0163 6.66669 17.4997 6.66669H22.4997C22.983 6.66669 23.333 6.95002 23.333 7.21669V10H16.6663V7.21669ZM29.9997 31.6667C29.9997 32.1087 29.8241 32.5326 29.5115 32.8452C29.199 33.1578 28.775 33.3334 28.333 33.3334H11.6663C11.2243 33.3334 10.8004 33.1578 10.4878 32.8452C10.1753 32.5326 9.99967 32.1087 9.99967 31.6667V13.3334H29.9997V31.6667Z" fill="white"/>
<path d="M15.0002 28.3333C15.4422 28.3333 15.8661 28.1577 16.1787 27.8451C16.4912 27.5325 16.6668 27.1086 16.6668 26.6666V19.9999C16.6668 19.5579 16.4912 19.134 16.1787 18.8214C15.8661 18.5088 15.4422 18.3333 15.0002 18.3333C14.5581 18.3333 14.1342 18.5088 13.8217 18.8214C13.5091 19.134 13.3335 19.5579 13.3335 19.9999V26.6666C13.3335 27.1086 13.5091 27.5325 13.8217 27.8451C14.1342 28.1577 14.5581 28.3333 15.0002 28.3333Z" fill="white"/>
<path d="M25.0002 28.3333C25.4422 28.3333 25.8661 28.1577 26.1787 27.8451C26.4912 27.5325 26.6668 27.1086 26.6668 26.6666V19.9999C26.6668 19.5579 26.4912 19.134 26.1787 18.8214C25.8661 18.5088 25.4422 18.3333 25.0002 18.3333C24.5581 18.3333 24.1342 18.5088 23.8217 18.8214C23.5091 19.134 23.3335 19.5579 23.3335 19.9999V26.6666C23.3335 27.1086 23.5091 27.5325 23.8217 27.8451C24.1342 28.1577 24.5581 28.3333 25.0002 28.3333Z" fill="white"/>
</svg>
