<svg width="40" height="40" viewBox="0 0 40 40" fill="none" xmlns="http://www.w3.org/2000/svg">
<path d="M29.16 23.9713C28.6588 23.7175 26.2175 22.5263 25.7612 22.3563C25.305 22.1938 24.9737 22.1087 24.6412 22.61C24.3162 23.0987 23.3587 24.2175 23.0662 24.5438C22.7738 24.87 22.4862 24.895 21.9925 24.6737C21.4913 24.42 19.89 23.8987 17.9888 22.1937C16.5037 20.8725 15.515 19.245 15.2213 18.7437C14.9288 18.2487 15.1887 17.9688 15.4362 17.7213C15.6637 17.4937 15.9375 17.1488 16.1912 16.8488C16.4325 16.5488 16.51 16.3475 16.6863 16.0225C16.8488 15.6712 16.765 15.3975 16.6413 15.15C16.5175 14.9025 15.5212 12.4488 15.105 11.4713C14.7075 10.5013 14.2912 10.625 13.985 10.625C13.6987 10.5988 13.3663 10.5988 13.035 10.5988C12.7038 10.5988 12.1625 10.7225 11.7062 11.1975C11.25 11.6988 9.96125 12.8963 9.96125 15.3188C9.96125 17.7475 11.745 20.0975 11.9925 20.4487C12.2463 20.7738 15.5012 25.7737 20.495 27.9225C21.6862 28.4237 22.6112 28.7238 23.3337 28.9713C24.525 29.3488 25.6125 29.2962 26.4713 29.1725C27.4213 29.0162 29.4137 27.9675 29.8312 26.7962C30.255 25.6175 30.255 24.6412 30.1312 24.42C30.0075 24.1925 29.6825 24.0688 29.1812 23.8475L29.16 23.9713ZM20.1038 36.25H20.0775C17.1213 36.25 14.1988 35.4487 11.6463 33.9512L11.0475 33.5938L4.7975 35.2212L6.4775 29.14L6.07375 28.515C4.42625 25.8912 3.5475 22.8638 3.5475 19.7525C3.5475 10.6775 10.9763 3.275 20.1163 3.275C24.5438 3.275 28.6975 5 31.8225 8.125C34.9475 11.2238 36.6725 15.3775 36.6725 19.7787C36.66 28.8475 29.2375 36.25 20.11 36.25H20.1038ZM34.1987 5.74875C30.3962 2.07625 25.3962 0 20.0775 0C9.1075 0 0.175 8.89375 0.16875 19.8237C0.16875 23.3137 1.08 26.7187 2.825 29.7325L0 40L10.56 37.2463C13.47 38.815 16.745 39.655 20.0788 39.6613H20.085C31.0613 39.6613 39.9938 30.7675 40 19.83C40 14.5375 37.9363 9.55625 34.1738 5.8125L34.1987 5.74875Z" fill="white"/>
</svg>
