<svg width="48" height="48" viewBox="0 0 48 48" fill="none" xmlns="http://www.w3.org/2000/svg">
<path d="M40.5133 7.49875C36.1127 3.09575 30.2607 0.669081 24.026 0.666748C11.1787 0.666748 0.722992 11.1177 0.718326 23.9651C0.715992 28.0717 1.78933 32.0804 3.82866 35.6131L0.666992 47.3334L12.8773 44.4471C16.2817 46.3044 20.113 47.2821 24.0143 47.2844H24.0237C36.8687 47.2844 47.3243 36.8311 47.3313 23.9861C47.336 17.7584 44.914 11.9041 40.5133 7.49875ZM35.429 32.2927C34.9437 33.6531 32.566 34.9644 31.4973 35.0601C30.4287 35.1581 29.4277 35.5431 24.509 33.6041C18.5893 31.2707 14.8513 25.2017 14.562 24.8144C14.2703 24.4247 12.1843 21.6574 12.1843 18.7921C12.1843 15.9267 13.6893 14.5174 14.2237 13.9364C14.758 13.3531 15.388 13.2084 15.7777 13.2084C16.165 13.2084 16.5547 13.2084 16.893 13.2224C17.3083 13.2387 17.768 13.2597 18.2043 14.2281C18.7223 15.3807 19.854 18.2601 19.9987 18.5517C20.1433 18.8434 20.2413 19.1841 20.0477 19.5714C19.854 19.9587 19.756 20.2014 19.4667 20.5421C19.175 20.8827 18.8553 21.3004 18.594 21.5617C18.3023 21.8511 17.999 22.1684 18.3373 22.7494C18.678 23.3327 19.8447 25.2391 21.576 26.7814C23.802 28.7648 25.6757 29.3784 26.259 29.6724C26.8423 29.9641 27.1807 29.9151 27.5213 29.5254C27.862 29.1381 28.9773 27.8267 29.3647 27.2434C29.752 26.6601 30.1417 26.7581 30.676 26.9517C31.2103 27.1454 34.0733 28.5547 34.6543 28.8464C35.2377 29.1381 35.625 29.2827 35.7697 29.5254C35.9143 29.7658 35.9143 30.9324 35.429 32.2927Z" fill="#0076E2"/>
</svg>
